<svg preserveAspectRatio="none" width="100%" height="100%" overflow="visible" style="display: block;" viewBox="0 0 23.9986 23.9986" fill="none" xmlns="http://www.w3.org/2000/svg">
<g id="Icon" clip-path="url(#clip0_0_8)">
<path id="Vector" d="M11.9993 10.7994C10.9124 8.68557 7.95354 4.7468 5.2017 2.80491C2.56585 0.944023 1.56091 1.266 0.901947 1.56499C0.138992 1.90797 0 3.0799 0 3.76786C0 4.45782 0.377978 9.41753 0.623964 10.2465C1.43892 12.9823 4.33675 13.9063 7.00659 13.6103C7.14258 13.5903 7.28158 13.5713 7.42157 13.5543C7.28357 13.5763 7.14558 13.5943 7.00659 13.6103C3.09482 14.1902 -0.379978 15.6152 4.17676 20.6879C9.18946 25.8776 11.0464 19.5749 11.9993 16.3801C12.9522 19.5749 14.0492 25.6506 19.7318 20.6879C23.9986 16.3801 20.9038 14.1902 16.992 13.6103C16.8533 13.5949 16.7149 13.5763 16.577 13.5543C16.717 13.5713 16.856 13.5903 16.992 13.6103C19.6619 13.9073 22.5597 12.9823 23.3746 10.2465C23.6206 9.41853 23.9986 4.45682 23.9986 3.76886C23.9986 3.0789 23.8596 1.90797 23.0967 1.56299C22.4377 1.265 21.4327 0.943023 18.7969 2.80291C16.0451 4.7478 13.0862 8.68657 11.9993 10.7994Z" fill="var(--fill-0, #4A4A4A)"/>
</g>
<defs>
<clipPath id="clip0_0_8">
<rect width="23.9986" height="23.9986" fill="white"/>
</clipPath>
</defs>
</svg>
