<svg preserveAspectRatio="none" width="100%" height="100%" overflow="visible" style="display: block;" viewBox="0 0 23.9986 23.9986" fill="none" xmlns="http://www.w3.org/2000/svg">
<g id="Icon">
<path id="Vector" d="M16.9991 2H6.99971C4.23845 2 2 4.23845 2 6.99971V16.9991C2 19.7604 4.23845 21.9988 6.99971 21.9988H16.9991C19.7604 21.9988 21.9988 19.7604 21.9988 16.9991V6.99971C21.9988 4.23845 19.7604 2 16.9991 2Z" stroke="var(--stroke-0, #4A4A4A)" stroke-width="1.99988" stroke-linecap="round" stroke-linejoin="round"/>
<path id="Vector_2" d="M15.9995 11.3695C16.1229 12.2018 15.9808 13.0518 15.5933 13.7986C15.2058 14.5453 14.5927 15.1509 13.8412 15.5292C13.0896 15.9075 12.238 16.0391 11.4073 15.9055C10.5767 15.7718 9.80929 15.3796 9.21437 14.7847C8.61945 14.1898 8.22726 13.4224 8.0936 12.5917C7.95993 11.7611 8.0916 10.9094 8.46986 10.1579C8.84812 9.40639 9.45372 8.79328 10.2005 8.40578C10.9473 8.01828 11.7973 7.87612 12.6295 7.99954C13.4785 8.12542 14.2644 8.521 14.8712 9.12784C15.4781 9.73469 15.8736 10.5206 15.9995 11.3695Z" stroke="var(--stroke-0, #4A4A4A)" stroke-width="1.99988" stroke-linecap="round" stroke-linejoin="round"/>
<path id="Vector_3" d="M17.499 6.49962H17.509" stroke="var(--stroke-0, #4A4A4A)" stroke-width="1.99988" stroke-linecap="round" stroke-linejoin="round"/>
</g>
</svg>
