<svg preserveAspectRatio="none" width="100%" height="100%" overflow="visible" style="display: block;" viewBox="0 0 23.9986 23.9986" fill="none" xmlns="http://www.w3.org/2000/svg">
<g id="Icon">
<path id="Vector" d="M15.9994 7.99953C17.5907 7.99953 19.1168 8.63167 20.2421 9.75689C21.3673 10.8821 21.9994 12.4082 21.9994 13.9995V20.9995H17.9994V13.9995C17.9994 13.4691 17.7887 12.9604 17.4136 12.5853C17.0386 12.2102 16.5298 11.9995 15.9994 11.9995C15.469 11.9995 14.9603 12.2102 14.5852 12.5853C14.2101 12.9604 13.9994 13.4691 13.9994 13.9995V20.9995H9.99942V13.9995C9.99942 12.4082 10.6316 10.8821 11.7568 9.75689C12.882 8.63167 14.4081 7.99953 15.9994 7.99953Z" stroke="var(--stroke-0, #4A4A4A)" stroke-width="1.99988" stroke-linecap="round" stroke-linejoin="round"/>
<path id="Vector_2" d="M5.99988 8.99948H1.99988V20.9995H5.99988V8.99948Z" stroke="var(--stroke-0, #4A4A4A)" stroke-width="1.99988" stroke-linecap="round" stroke-linejoin="round"/>
<path id="Vector_3" d="M4 6C5.10457 6 6 5.10457 6 4C6 2.89543 5.10457 2 4 2C2.89543 2 2 2.89543 2 4C2 5.10457 2.89543 6 4 6Z" stroke="var(--stroke-0, #4A4A4A)" stroke-width="1.99988" stroke-linecap="round" stroke-linejoin="round"/>
</g>
</svg>
